<svg width="18" height="18" viewBox="0 0 18 18" fill="none" xmlns="http://www.w3.org/2000/svg">
<path d="M15.75 13.5174C15.75 13.8835 15.4533 14.1802 15.0872 14.1802H2.91279C2.54674 14.1802 2.25 13.8835 2.25 13.5174C2.25 13.1514 2.54674 12.8547 2.91279 12.8547H2.925V8.23566C2.925 4.92966 5.64525 2.25 9 2.25C12.3548 2.25 15.075 4.92966 15.075 8.23566V12.8547H15.0872C15.4533 12.8547 15.75 13.1514 15.75 13.5174ZM4.275 12.8547H13.725V8.23566C13.725 5.66205 11.6096 3.57558 9 3.57558C6.39045 3.57558 4.275 5.66205 4.275 8.23566V12.8547ZM7.48203 15.5669C7.29841 15.1956 7.64829 14.843 8.0625 14.843H9.9375C10.3517 14.843 10.7016 15.1956 10.518 15.5669C10.4366 15.7313 10.3274 15.883 10.1932 16.0147C9.87678 16.3254 9.44755 16.5 9 16.5C8.55245 16.5 8.12323 16.3254 7.80676 16.0147C7.6726 15.883 7.56337 15.7313 7.48203 15.5669Z" fill="black"/>
<circle cx="13.1252" cy="4.875" r="3.375" fill="white"/>
<circle cx="13.1252" cy="4.875" r="2.625" fill="#F30066"/>
</svg>
