<svg width="13" height="13" viewBox="0 0 13 13" fill="none" xmlns="http://www.w3.org/2000/svg">
<path d="M12.5363 3.81592L11.4287 4.92354C11.3157 5.03646 11.1331 5.03646 11.0202 4.92354L8.35329 2.2566C8.24036 2.14368 8.24036 1.96108 8.35329 1.84815L9.46091 0.740535C9.9102 0.291241 10.6406 0.291241 11.0923 0.740535L12.5363 2.18452C12.988 2.63382 12.988 3.36422 12.5363 3.81592ZM7.40184 2.7996L1.0925 9.10894L0.583138 12.0282C0.513461 12.4222 0.857039 12.7634 1.25107 12.6961L4.17028 12.1843L10.4796 5.87499C10.5926 5.76206 10.5926 5.57946 10.4796 5.46654L7.81269 2.7996C7.69737 2.68668 7.51476 2.68668 7.40184 2.7996ZM3.55521 8.56835C3.42306 8.4362 3.42306 8.22477 3.55521 8.09263L7.25528 4.39255C7.38742 4.26041 7.59886 4.26041 7.731 4.39255C7.86315 4.5247 7.86315 4.73613 7.731 4.86828L4.03093 8.56835C3.89879 8.70049 3.68735 8.70049 3.55521 8.56835ZM2.68785 10.589H3.84112V11.4611L2.29142 11.7326L1.5442 10.9854L1.81569 9.4357H2.68785V10.589Z" fill="#0177FD"/>
</svg>
