<svg width="60" height="59" viewBox="0 0 60 59" fill="none" xmlns="http://www.w3.org/2000/svg">
<path d="M53.1462 29.787L58.4293 24.6767C60.0041 23.2031 59.2698 20.5844 57.2041 20.0961L50.0065 18.2805L52.0355 11.2386C52.6089 9.21309 50.6765 7.3026 48.6278 7.86944L41.5055 9.87554L39.6692 2.75921C39.1832 0.749471 36.5041 0.0144567 35.0364 1.54785L29.8676 6.81001L24.699 1.54796C23.248 0.0319436 20.5577 0.726533 20.0662 2.75932L18.2299 9.87566L11.1075 7.86956C9.05822 7.30248 7.12652 9.21366 7.6998 11.2387L9.72882 18.2806L2.53117 20.0962C0.464588 20.5846 -0.268273 23.2038 1.3059 24.6767L6.58897 29.787L1.3059 34.8972C-0.268963 36.3708 0.465393 38.9895 2.53105 39.4778L9.7287 41.2934L7.69969 48.3353C7.12629 50.3608 9.05868 52.2713 11.1073 51.7045L18.2296 49.6984L20.066 56.8147C20.576 58.9239 23.2479 59.542 24.6988 58.0261L29.8676 52.8026L35.0363 58.0261C36.4724 59.5576 39.1707 58.8761 39.6691 56.8147L41.5054 49.6984L48.6277 51.7045C50.6768 52.2715 52.6086 50.3604 52.0354 48.3353L50.0063 41.2934L57.204 39.4778C59.2705 38.9893 60.0033 36.3702 58.4291 34.8972L53.1462 29.787Z" fill="#3FB48D"/>
</svg>
