<svg width="13" height="9" viewBox="0 0 13 9" fill="none" xmlns="http://www.w3.org/2000/svg">
<path d="M4.5676 8.09649L3.50147 7.77925L3.93598 5.97929C3.28558 5.7132 2.68111 5.32542 2.14881 4.8328L0.960122 6.15199L0.178889 5.28539L1.36813 3.9668C0.696808 3.07494 0.245743 2.00501 0.059082 0.861727L1.14563 0.641861C1.56468 3.21534 3.59423 5.1678 6.0351 5.1678C8.47541 5.1678 10.5055 3.21534 10.9246 0.641861L12.0111 0.861115C11.8247 2.00455 11.3738 3.0747 10.7026 3.9668L11.8913 5.28539L11.1101 6.15199L9.92138 4.8328C9.38909 5.32542 8.78461 5.7132 8.13421 5.97929L8.56872 7.77986L7.5026 8.09649L7.06754 6.29592C6.38422 6.4258 5.68597 6.4258 5.00266 6.29592L4.5676 8.09649Z" fill="black"/>
</svg>
