<svg width="20" height="18" viewBox="0 0 20 18" fill="none" xmlns="http://www.w3.org/2000/svg">
<path d="M6.92984 0.839802C5.42203 1.15621 4.1564 2.30074 3.69547 3.76558C3.28531 5.06636 3.48062 6.38668 4.25797 7.53511C4.50406 7.8984 4.96109 8.35152 5.35562 8.62105C5.54703 8.75386 5.6525 8.84761 5.62125 8.85933C5.59 8.87105 5.37515 8.94136 5.13687 9.01949C4.59781 9.19527 3.72281 9.62496 3.26187 9.93355C1.74234 10.957 0.699373 12.3632 0.250155 13.9921C0.0626546 14.6757 -0.00765786 15.3359 0.00796714 16.2656L0.0196859 17.0156L0.148592 17.1289C0.320467 17.2851 0.566561 17.289 0.718905 17.1367C0.773592 17.082 0.82828 16.9961 0.839998 16.9531C0.847811 16.9062 0.863436 16.4843 0.875155 16.0117C0.906405 14.6953 1.05484 14.039 1.5275 13.0937C1.80875 12.5351 2.13297 12.0976 2.69547 11.5351C3.30875 10.9179 3.78531 10.5703 4.50406 10.2187C5.60953 9.67574 6.59 9.44918 7.85172 9.45699C8.81656 9.4609 9.45719 9.57027 10.3556 9.88277C12.1603 10.5078 13.6798 11.9101 14.3439 13.5664C14.6603 14.3554 14.7658 14.9648 14.7658 15.9961C14.7658 16.4179 14.7775 16.8203 14.7892 16.8867C14.8791 17.332 15.5041 17.3711 15.6252 16.9375C15.672 16.7578 15.6759 15.9336 15.6252 15.3007C15.5548 14.3906 15.3673 13.6914 14.9845 12.8828C14.1798 11.2031 12.7462 9.89058 10.9181 9.16402C10.7033 9.07808 10.4494 8.98824 10.3556 8.9609C9.95328 8.85543 9.95719 8.85933 10.2384 8.67183C10.9767 8.17574 11.6095 7.37105 11.9103 6.54293C12.465 5.0273 12.1056 3.30465 10.9962 2.12886C10.3517 1.44527 9.48844 0.972614 8.5939 0.812458C8.16031 0.734333 7.35953 0.746052 6.92984 0.839802ZM8.67594 1.7109C10.0002 2.07808 10.965 3.10152 11.2306 4.42574C11.3127 4.82418 11.2931 5.60543 11.1916 5.97261C11.1095 6.2734 10.8322 6.85543 10.6486 7.10543C10.1642 7.7773 9.44937 8.26168 8.64078 8.4609C8.17594 8.57808 7.42203 8.57808 6.97281 8.45699C5.30875 8.01949 4.18765 6.41011 4.37515 4.73433C4.55484 3.16011 5.69547 1.93746 7.25406 1.65621C7.5275 1.60543 8.41812 1.64058 8.67594 1.7109Z" fill="#83879B"/>
<path d="M13.7229 2.539C13.5432 2.62885 13.4534 2.83588 13.512 3.02728C13.5784 3.24994 13.6995 3.32025 14.051 3.35541C14.4964 3.39447 14.6682 3.44135 15.0784 3.64056C15.5979 3.89056 15.969 4.26166 16.2268 4.78119C16.4573 5.24994 16.5393 5.62103 16.512 6.08978C16.4417 7.36322 15.4651 8.39838 14.2034 8.539C13.7425 8.58978 13.6057 8.64838 13.5276 8.83197C13.4807 8.94916 13.4768 9.00385 13.5159 9.12494C13.5823 9.3515 13.7151 9.414 14.1917 9.44916C16.0432 9.57416 17.555 10.4453 18.4534 11.8984C18.9417 12.6874 19.137 13.4999 19.1409 14.7148C19.1409 15.1601 19.1487 15.2304 19.2229 15.332C19.4026 15.5898 19.8245 15.5546 19.9417 15.2734C19.9846 15.1718 20.0003 14.9726 20.0003 14.5195C20.0003 13.4843 19.8518 12.7695 19.469 11.9726C18.9925 10.9687 18.2815 10.1679 17.3245 9.55463C17.0159 9.35541 16.3753 9.04291 16.0667 8.94525C15.9534 8.90619 15.8596 8.85931 15.8596 8.83978C15.8596 8.82025 15.8753 8.80463 15.8948 8.80463C15.9651 8.80463 16.5706 8.20306 16.7385 7.96869C17.5979 6.75385 17.5979 5.15228 16.7385 3.93744C16.5003 3.6015 16.0003 3.15228 15.6526 2.95306C14.9925 2.57806 14.055 2.37494 13.7229 2.539Z" fill="#83879B"/>
</svg>
