<svg width="15" height="18" viewBox="0 0 15 18" fill="none" xmlns="http://www.w3.org/2000/svg">
<path d="M13.3406 5.68669L8.75006 1.30336C8.32924 0.893396 7.78446 0.666748 7.21988 0.666748C6.65529 0.666748 6.11051 0.893396 5.68969 1.30336L1.09915 5.68669C0.856131 5.92342 0.662204 6.21382 0.530281 6.53856C0.398358 6.8633 0.331465 7.21493 0.334057 7.57003V14.8534C0.334057 15.5164 0.57588 16.1523 1.00633 16.6211C1.43677 17.09 2.02059 17.3534 2.62933 17.3534H11.8104C12.4192 17.3534 13.003 17.09 13.4334 16.6211C13.8639 16.1523 14.1057 15.5164 14.1057 14.8534V7.56169C14.1072 7.20799 14.0398 6.85798 13.9079 6.53476C13.776 6.21154 13.5827 5.92249 13.3406 5.68669ZM8.75006 15.6867H5.68969V11.52C5.68969 11.299 5.7703 11.0871 5.91378 10.9308C6.05727 10.7745 6.25187 10.6867 6.45478 10.6867H7.98497C8.18788 10.6867 8.38249 10.7745 8.52597 10.9308C8.66945 11.0871 8.75006 11.299 8.75006 11.52V15.6867ZM12.5755 14.8534C12.5755 15.0744 12.4949 15.2863 12.3514 15.4426C12.2079 15.5989 12.0133 15.6867 11.8104 15.6867H10.2802V11.52C10.2802 10.857 10.0384 10.2211 9.60797 9.75226C9.17752 9.28342 8.59371 9.02003 7.98497 9.02003H6.45478C5.84604 9.02003 5.26223 9.28342 4.83178 9.75226C4.40133 10.2211 4.15951 10.857 4.15951 11.52V15.6867H2.62933C2.42642 15.6867 2.23181 15.5989 2.08833 15.4426C1.94485 15.2863 1.86424 15.0744 1.86424 14.8534V7.56169C1.86438 7.44337 1.88765 7.32644 1.9325 7.21867C1.97735 7.11091 2.04276 7.01478 2.12437 6.93669L6.71492 2.56169C6.85454 2.42809 7.03403 2.35441 7.21988 2.35441C7.40572 2.35441 7.58522 2.42809 7.72484 2.56169L12.3154 6.93669C12.397 7.01478 12.4624 7.11091 12.5073 7.21867C12.5521 7.32644 12.5754 7.44337 12.5755 7.56169V14.8534Z" fill="black"/>
</svg>
